<?xml version="1.0" standalone="no"?>
<!DOCTYPE svg PUBLIC "-//W3C//DTD SVG 20010904//EN"
 "http://www.w3.org/TR/2001/REC-SVG-20010904/DTD/svg10.dtd">
<svg version="1.0" xmlns="http://www.w3.org/2000/svg"
 width="512.000000pt" height="512.000000pt" viewBox="0 0 512.000000 512.000000"
 preserveAspectRatio="xMidYMid meet">
<metadata>
Created by potrace 1.11, written by Peter Selinger 2001-2013
</metadata>
<g transform="translate(0.000000,512.000000) scale(0.100000,-0.100000)"
fill="#000000" stroke="none">
<path d="M2127 3675 c-27 -7 -65 -24 -85 -38 -21 -13 -48 -28 -62 -32 -14 -4
-50 -22 -80 -40 -30 -18 -77 -45 -104 -60 -101 -57 -165 -139 -186 -241 -5
-27 -37 -431 -71 -899 -61 -834 -62 -851 -45 -915 29 -114 105 -200 213 -240
47 -18 137 -27 592 -60 295 -22 556 -41 581 -43 93 -8 175 17 272 82 24 16 90
52 147 81 66 33 119 67 145 95 35 35 53 45 102 55 202 42 295 136 328 332 16
91 19 98 60 139 37 38 45 53 56 112 10 57 7 157 -5 157 -2 0 -34 -16 -72 -35
-37 -19 -75 -35 -83 -35 -18 1 29 29 48 30 7 0 50 22 95 49 45 27 100 54 122
61 59 18 141 102 161 165 9 27 19 56 22 64 3 9 1 12 -6 7 -6 -3 -13 -2 -17 4
-8 14 -42 12 -90 -5 -48 -17 -69 -5 -40 25 23 22 108 31 127 12 16 -16 29 -15
22 1 -2 7 13 40 34 72 99 150 112 173 112 194 0 12 5 31 11 43 17 32 19 150 4
194 -44 125 -94 200 -176 264 -35 28 -71 57 -79 64 -49 46 -225 78 -391 71
-104 -4 -104 -4 -108 -49 0 -8 -11 -18 -23 -22 -22 -7 -22 -7 -3 -14 11 -4 20
-13 20 -21 0 -8 7 -14 15 -14 8 0 17 -3 20 -6 10 -12 74 -29 106 -29 19 0 34
-5 34 -11 0 -6 7 -4 15 4 8 9 23 13 34 10 24 -6 61 -40 61 -55 0 -9 3 -9 11
-1 13 13 36 7 61 -15 10 -8 34 -15 55 -16 21 -1 56 -14 78 -28 22 -14 44 -26
48 -26 5 -1 17 -13 29 -27 19 -25 19 -27 4 -67 -9 -22 -14 -43 -11 -46 3 -3 5
0 5 6 0 7 4 12 9 12 5 0 8 -8 6 -17 -2 -10 -4 -24 -4 -31 -1 -7 -5 -10 -11 -7
-5 3 -9 -2 -8 -12 3 -28 -13 -93 -23 -93 -5 0 -9 -7 -9 -16 0 -9 5 -12 12 -8
8 5 9 -2 4 -27 -4 -19 -11 -62 -15 -96 -4 -34 -14 -70 -22 -80 -9 -10 -22 -34
-29 -53 -8 -19 -21 -43 -30 -52 -8 -9 -24 -32 -34 -50 -19 -31 -19 -32 -1 -18
17 14 18 13 12 -17 -5 -26 -3 -33 14 -38 11 -4 24 -16 28 -28 8 -21 8 -20 36
7 l29 29 -22 18 c-12 9 -28 20 -35 22 -17 8 12 27 41 27 22 0 23 -3 20 -57 -3
-64 -16 -82 -60 -83 -34 0 -46 -17 -16 -23 20 -3 16 -7 -22 -25 -25 -12 -57
-22 -71 -22 -32 0 -45 26 -26 49 8 9 17 24 21 34 3 11 15 21 26 24 16 4 19 11
13 32 -8 33 -13 40 -13 15 0 -16 -2 -17 -10 -4 -5 8 -10 11 -10 5 0 -5 -14
-26 -30 -45 -16 -19 -30 -37 -30 -40 0 -3 -21 -18 -47 -35 -63 -39 -141 -43
-193 -8 -33 22 -35 26 -36 86 -3 114 -16 237 -26 237 -6 0 -8 -14 -4 -35 5
-23 2 -45 -9 -66 -15 -28 -20 -31 -51 -26 -19 3 -47 14 -62 25 -32 22 -135 48
-151 38 -7 -5 -11 7 -11 39 0 36 6 51 25 71 23 23 45 56 45 68 0 3 -7 6 -15 6
-8 0 -15 -6 -15 -13 0 -7 -22 -19 -51 -26 -28 -7 -63 -20 -79 -27 -28 -15 -60
-67 -60 -101 0 -29 -12 -63 -21 -63 -35 0 29 246 92 357 17 30 29 57 25 60 -3
3 -10 -6 -15 -20 -5 -14 -14 -28 -20 -31 -5 -3 -22 -39 -38 -79 l-28 -72 -5
37 -5 37 -70 -31 -70 -30 -129 11 c-71 6 -131 13 -134 16 -6 5 17 207 24 214
2 3 57 -1 122 -7 64 -7 165 -15 223 -18 105 -6 106 -6 112 17 4 17 0 30 -13
43 -18 18 -21 19 -38 3 -14 -13 -31 -15 -77 -11 -87 7 -318 34 -321 37 -1 1 3
34 8 72 8 57 14 74 36 91 21 18 24 24 14 36 -16 20 -117 69 -156 75 l-33 5 -5
-127 c-3 -69 -8 -129 -11 -132 -6 -5 -385 40 -473 56 -49 9 -51 6 -27 -43 14
-29 20 -34 42 -30 25 5 439 -41 448 -49 3 -4 -6 -80 -22 -183 l-5 -30 -116 13
c-106 12 -121 16 -163 47 -50 37 -104 66 -121 66 -6 0 -10 -23 -10 -54 0 -71
-94 -923 -105 -953 -6 -16 36 -17 103 -3 l48 11 12 137 c28 303 74 688 85 698
9 8 33 9 82 3 231 -29 513 -59 546 -59 26 0 42 -5 46 -15 7 -21 -46 -494 -59
-520 -6 -11 -22 -33 -37 -48 -23 -25 -26 -36 -26 -103 0 -84 5 -81 -95 -59
-36 7 -67 12 -69 10 -2 -3 22 -29 54 -59 l58 -55 -31 -35 c-39 -45 -46 -82
-32 -171 34 -221 59 -248 189 -207 97 31 204 39 235 18 14 -9 46 -16 71 -16
27 0 44 -4 40 -10 -3 -5 -60 -36 -126 -70 -136 -68 -142 -69 -371 -50 -68 6
-308 24 -534 40 -226 17 -424 34 -440 39 -78 22 -149 85 -183 161 -24 52 -27
154 -11 335 5 61 21 272 35 470 14 198 27 383 30 410 2 28 7 84 10 125 28 412
37 497 56 540 27 61 73 107 139 139 30 15 77 40 104 55 37 23 64 30 120 33 39
3 321 -14 626 -36 532 -40 557 -42 607 -67 61 -29 104 -77 128 -143 24 -63 28
-65 60 -35 l28 26 -23 48 c-43 91 -137 167 -235 189 -49 11 -1112 92 -1183 90
-21 0 -59 -7 -85 -14z m1092 -1277 c12 -53 79 -186 106 -208 8 -7 15 -17 15
-22 0 -6 -6 -5 -15 2 -12 10 -16 8 -25 -15 -5 -14 -10 -31 -10 -36 0 -11 -117
-12 -124 0 -8 12 29 331 39 331 2 0 8 -23 14 -52z m199 -29 c60 -30 84 -49 62
-49 -6 0 -21 6 -33 12 -12 7 -38 17 -57 23 -19 6 -36 18 -38 28 -4 22 -6 22
66 -14z m-68 -22 c0 -18 87 -99 123 -114 15 -7 27 -17 27 -23 0 -15 -9 -12
-37 10 -14 11 -43 25 -63 30 -28 7 -44 20 -60 47 -21 35 -21 63 0 63 5 0 10
-6 10 -13z m268 -89 c2 -35 0 -45 -13 -45 -8 0 -15 4 -15 9 0 4 -6 8 -14 8
-15 0 -10 46 8 67 19 21 31 8 34 -39z m-130 -183 c34 -4 64 -10 66 -14 3 -4
-28 -8 -67 -10 -40 -1 -73 -4 -75 -6 -2 -1 -4 -26 -5 -54 -2 -47 -4 -51 -27
-51 -25 0 -25 1 -25 77 0 43 4 81 9 85 6 3 21 1 35 -7 14 -7 54 -16 89 -20z
m-369 -11 c29 -24 37 -26 119 -23 l87 4 -3 -35 c-2 -19 -6 -37 -8 -39 -2 -2
-40 -4 -85 -4 -75 -1 -83 -3 -109 -29 -29 -28 -50 -36 -50 -18 0 6 -9 10 -21
10 -14 0 -19 5 -16 14 3 8 -1 17 -10 20 -12 5 -13 9 -4 20 6 7 9 21 5 30 -5
12 1 18 23 22 25 5 29 10 25 30 -6 31 9 30 47 -2z m642 17 c-10 -7 -4 -16 30
-40 49 -36 79 -46 114 -37 23 6 24 5 14 -21 -15 -39 -49 -73 -74 -73 -28 0
-77 52 -109 117 l-26 52 23 4 c38 7 42 7 28 -2z m46 3 c-3 -3 -12 -4 -19 -1
-8 3 -5 6 6 6 11 1 17 -2 13 -5z m-30 -177 c16 -17 23 -27 17 -24 -8 4 -14 -7
-19 -31 -6 -35 -17 -64 -53 -142 -8 -19 -15 -38 -14 -42 4 -16 -66 -12 -138 8
-65 19 -173 74 -220 112 -29 25 -32 31 -24 56 9 27 10 27 104 29 80 2 104 6
152 29 65 30 98 73 98 128 0 34 1 34 35 -29 19 -36 47 -78 62 -94z m-137 80
c0 -2 -10 -12 -22 -23 l-23 -19 19 23 c18 21 26 27 26 19z m-68 -49 c-23 -9
-140 -10 -145 0 -3 4 33 7 79 7 46 0 76 -3 66 -7z m-302 -47 c0 -27 -25 -69
-50 -83 -20 -11 -31 -27 -35 -52 -6 -30 -13 -37 -44 -46 -52 -14 -57 -13 -81
17 l-21 27 29 12 c33 13 62 49 62 75 0 29 44 56 94 57 25 0 46 -3 46 -7z
m-310 -178 c0 -16 -3 -39 -7 -52 -6 -23 -7 -23 -14 -5 -14 35 -10 84 6 84 10
0 15 -10 15 -27z m43 -50 c-6 -16 9 -17 25 -1 9 9 15 9 25 -1 10 -10 8 -11 -6
-5 -15 6 -17 3 -11 -20 5 -20 2 -26 -10 -26 -9 0 -16 -5 -16 -11 0 -6 7 -8 18
-4 13 5 14 3 5 -6 -14 -14 -36 -2 -29 17 3 8 -1 14 -10 14 -10 0 -14 6 -11 15
4 8 2 17 -2 19 -5 3 -6 17 -3 31 4 23 6 24 17 8 7 -9 11 -23 8 -30z m-77 -60
c7 -43 16 -94 20 -113 4 -19 4 -32 0 -29 -4 4 -16 55 -27 115 -21 121 -21 120
-13 111 4 -3 12 -41 20 -84z m301 -40 c11 -48 5 -53 -83 -53 l-51 0 -7 42 c-4
23 -2 46 3 51 5 5 33 15 63 22 60 14 57 15 75 -62z m-207 -54 c0 -5 -7 -9 -15
-9 -15 0 -20 12 -9 23 8 8 24 -1 24 -14z"/>
<path d="M2998 1633 c7 -3 16 -2 19 1 4 3 -2 6 -13 5 -11 0 -14 -3 -6 -6z"/>
<path d="M3533 3247 c-18 -20 -37 -57 -29 -57 7 0 58 71 54 76 -3 2 -14 -6
-25 -19z"/>
<path d="M3411 3029 c-24 -33 -41 -63 -38 -65 5 -6 58 60 76 94 24 46 4 31
-38 -29z"/>
<path d="M3496 2925 c-3 -8 -3 -22 1 -31 5 -14 0 -15 -38 -8 -83 14 -136 -2
-80 -25 17 -8 28 -18 25 -26 -6 -15 17 -25 74 -32 55 -6 122 33 122 70 0 44
-90 88 -104 52z"/>
<path d="M3690 2860 c-9 -22 -10 -37 -3 -53 6 -12 17 -39 26 -59 11 -25 25
-40 42 -44 14 -3 25 -10 25 -14 0 -5 13 -6 29 -4 16 3 53 -4 82 -15 29 -11 54
-19 56 -17 7 6 -110 85 -142 96 -40 13 -44 31 -15 62 11 12 20 24 20 28 0 4
-47 27 -96 47 -6 2 -17 -10 -24 -27z"/>
<path d="M3607 2853 c-4 -3 -7 -19 -7 -35 0 -43 34 -34 38 10 3 31 -13 44 -31
25z"/>
<path d="M2500 2673 c0 -3 6 -14 14 -22 17 -21 36 -77 36 -110 0 -64 65 -97
107 -55 31 31 30 74 -4 115 -36 42 -153 98 -153 72z"/>
<path d="M3473 2663 c-36 -24 -27 -42 32 -69 54 -25 125 -42 125 -30 0 8 -70
99 -84 108 -18 12 -49 8 -73 -9z"/>
<path d="M2813 2643 c-18 -54 -66 -173 -81 -203 -20 -40 -17 -40 -181 -14 -52
8 -96 13 -98 10 -2 -2 4 -20 13 -39 15 -31 22 -36 48 -34 17 0 49 0 70 -1 l39
-2 -6 -66 c-4 -37 -8 -68 -10 -70 -2 -2 -52 4 -110 14 -59 10 -107 14 -107 10
0 -4 7 -22 16 -40 l15 -33 86 -2 c47 -2 88 -5 90 -7 2 -2 -6 -72 -17 -156 -12
-83 -19 -154 -17 -156 4 -5 127 12 133 18 1 2 8 62 14 133 7 72 15 133 19 138
6 6 56 2 204 -18 29 -4 37 -2 37 11 0 18 -57 104 -69 104 -5 0 -20 -9 -34 -20
-25 -20 -100 -28 -123 -12 -11 7 -4 115 8 128 4 3 46 1 94 -6 48 -6 90 -7 95
-3 12 12 -50 113 -68 113 -9 0 -31 -11 -48 -25 -18 -13 -35 -21 -38 -18 -8 8
129 155 160 171 31 17 21 30 -51 65 -64 32 -75 33 -83 10z"/>
<path d="M350 2403 c-126 -43 -122 -41 -118 -66 3 -20 8 -22 56 -21 45 2 52
-1 52 -17 0 -16 -8 -19 -44 -19 -60 0 -76 -8 -76 -36 0 -28 7 -32 70 -36 45
-4 45 -4 48 -45 l3 -41 -43 -7 c-57 -10 -78 -22 -78 -44 0 -32 24 -44 67 -32
54 15 53 16 53 -34 0 -43 -1 -45 -29 -45 -34 0 -51 -31 -31 -55 16 -20 80 -19
108 1 20 13 22 24 22 93 l0 78 39 12 c41 12 55 30 44 57 -5 12 -15 15 -44 11
-38 -5 -39 -4 -39 25 0 28 1 29 42 26 l42 -3 13 -63 c7 -34 17 -71 23 -81 8
-16 4 -24 -20 -44 -16 -14 -39 -28 -49 -32 -27 -8 -34 -35 -15 -57 20 -22 44
-17 91 19 l33 25 46 -41 c56 -49 78 -51 103 -10 30 49 36 100 15 116 -24 17
-36 12 -52 -20 -15 -32 -23 -33 -45 -9 -14 16 -13 21 19 72 42 67 43 103 1
108 -24 3 -30 -2 -49 -45 -20 -45 -22 -47 -29 -23 -4 14 -7 39 -8 56 l-1 30
66 0 c79 -1 104 7 104 33 0 30 -30 41 -109 41 l-71 0 0 63 c0 73 -9 90 -41 85
-22 -3 -24 -8 -27 -75 l-3 -73 -39 0 c-38 0 -40 1 -40 33 0 25 6 36 30 49 34
19 37 30 14 52 -19 19 -12 20 -104 -11z"/>
<path d="M1033 2423 c-9 -3 -13 -26 -13 -63 l0 -59 -102 -3 -103 -3 0 -30 0
-30 99 -3 98 -3 -5 -29 c-16 -80 -101 -190 -172 -222 -31 -14 -34 -53 -5 -68
15 -8 28 -7 52 6 42 22 137 119 162 166 l19 35 39 -58 c78 -117 209 -192 232
-134 9 25 -2 39 -58 73 -30 18 -72 53 -94 77 -37 42 -82 121 -82 145 0 5 44
11 101 12 82 2 104 6 112 20 8 12 7 21 -2 32 -11 13 -34 16 -112 16 l-99 0 0
39 c0 75 -22 103 -67 84z"/>
<path d="M592 2398 c-19 -19 -14 -42 17 -72 34 -33 74 -33 79 0 2 14 -9 32
-33 53 -40 34 -46 36 -63 19z"/>
<path d="M4440 2395 c-6 -8 -9 -23 -5 -34 6 -19 16 -21 178 -23 l172 -3 -49
-32 c-46 -30 -51 -32 -67 -17 -22 20 -63 15 -67 -9 -2 -9 8 -31 21 -47 14 -16
30 -52 36 -80 23 -107 8 -152 -54 -160 -31 -4 -41 -10 -43 -26 -11 -74 137
-69 167 5 13 31 11 199 -3 231 -4 11 18 32 79 75 92 64 113 97 80 122 -28 20
-428 19 -445 -2z"/>
<path d="M1017 2023 c-13 -12 -7 -42 14 -77 22 -38 55 -48 65 -21 18 46 -49
129 -79 98z"/>
</g>
</svg>
