<?xml version="1.0" standalone="no"?>
<!DOCTYPE svg PUBLIC "-//W3C//DTD SVG 20010904//EN"
 "http://www.w3.org/TR/2001/REC-SVG-20010904/DTD/svg10.dtd">
<svg version="1.0" xmlns="http://www.w3.org/2000/svg"
 width="1022.000000pt" height="1022.000000pt" viewBox="0 0 1022.000000 1022.000000"
 preserveAspectRatio="xMidYMid meet">
<metadata>
Created by potrace 1.11, written by Peter Selinger 2001-2013
</metadata>
<g transform="translate(0.000000,1022.000000) scale(0.100000,-0.100000)"
fill="#000000" stroke="none">
<path d="M4745 10189 c-184 -14 -300 -29 -490 -60 -697 -115 -1392 -391 -1990
-792 -760 -509 -1366 -1205 -1760 -2022 -246 -509 -389 -992 -464 -1565 -32
-242 -33 -254 -36 -585 -3 -350 5 -493 41 -752 120 -866 453 -1673 978 -2368
50 -66 100 -131 112 -145 12 -14 63 -74 115 -134 149 -175 340 -363 574 -565
17 -14 80 -65 140 -112 515 -402 1103 -700 1742 -884 224 -64 521 -127 718
-150 28 -4 61 -8 75 -10 27 -4 96 -11 250 -25 97 -8 730 -6 785 3 17 3 60 8
97 12 93 8 232 27 378 51 102 16 375 79 496 113 1400 398 2557 1358 3199 2656
247 498 424 1084 485 1599 6 54 14 108 17 120 12 45 15 857 4 988 -118 1370
-813 2657 -1901 3522 -181 145 -271 208 -495 351 -127 81 -565 315 -590 315
-2 0 -33 13 -67 29 -97 44 -237 98 -397 152 -407 139 -817 221 -1286 258 -123
10 -608 10 -730 0z"/>
</g>
</svg>
